<svg width="18" height="18" viewBox="0 0 18 18" fill="none" xmlns="http://www.w3.org/2000/svg">
<path d="M0.584091 0.66283C0.265628 0.658695 0.00411136 0.913538 4.89663e-05 1.232C-0.00038629 1.26544 0.00208017 1.29889 0.00744833 1.33189L2.45562 16.1939C2.51859 16.5693 2.84198 16.8453 3.22269 16.8485H14.9676C15.2533 16.8521 15.4985 16.6461 15.5442 16.3641L17.9925 1.33479C18.0435 1.02039 17.8299 0.724202 17.5155 0.673204C17.4825 0.667836 17.4491 0.665369 17.4157 0.665805L0.584091 0.66283ZM10.8929 11.4042H7.14428L6.12926 6.10129H11.8013L10.8929 11.4042Z" fill="white" style="fill:white;fill-opacity:1;"/>
<path d="M17.7111 5.92749H11.9651L11.0007 11.5573H7.02091L2.32178 17.1351C2.47069 17.2639 2.66061 17.3355 2.85746 17.3372H15.3295C15.6328 17.3411 15.8932 17.1223 15.9418 16.8229L17.7111 5.92749Z" fill="url(#paint0_linear_95_541)" style=""/>
<defs>
<linearGradient id="paint0_linear_95_541" x1="19.0442" y1="7.51334" x2="10.5309" y2="15.7419" gradientUnits="userSpaceOnUse">
<stop offset="0.18" stop-opacity="0.15" style="stop-color:black;stop-opacity:0.15;"/>
<stop offset="1" stop-color="white" style="stop-color:white;stop-opacity:1;"/>
</linearGradient>
</defs>
</svg>
