<svg width="19" height="18" viewBox="0 0 19 18" fill="none" xmlns="http://www.w3.org/2000/svg">
<path d="M1.48563 7.09003L0.534123 10.1749C0.44398 10.4577 0.534123 10.7759 0.78452 10.9562L9.50836 17.297L9.50142 17.2877L9.47831 17.2577L1.48563 7.09003ZM18.2145 10.9562C18.3334 10.8691 18.4217 10.7466 18.4667 10.6063C18.5117 10.4659 18.5111 10.3149 18.4649 10.1749L17.5157 7.09003L9.50913 17.2831L18.2145 10.9562Z" fill="white" style="fill:white;fill-opacity:1;"/>
<path opacity="0.4" d="M1.48572 7.09003L9.47839 17.2577L9.50151 17.2877L9.50921 17.2831L17.5158 7.09003H1.48572Z" fill="white" style="fill:white;fill-opacity:1;"/>
<path opacity="0.6" d="M12.8137 7.09003L9.50151 17.2877L9.49843 17.2962L9.50921 17.2831L17.5158 7.09003H12.8137ZM6.18317 7.09003H1.48572L9.47839 17.2577L6.18317 7.09003Z" fill="white" style="fill:white;fill-opacity:1;"/>
<path opacity="0.4" d="M14.8169 0.940039L12.8137 7.08979H17.5158L15.5087 0.940039C15.4063 0.624154 14.9193 0.624154 14.8169 0.940039ZM1.48572 7.08979L3.48967 0.940039C3.59214 0.624154 4.07829 0.624154 4.18076 0.940039L6.18394 7.08979H1.48572Z" fill="white" style="fill:white;fill-opacity:1;"/>
</svg>
