<svg width="28" height="28" viewBox="0 0 28 28" fill="none" xmlns="http://www.w3.org/2000/svg">
<path d="M14.163 4.01956C14.1128 4.10294 14.0868 4.19779 14.0879 4.29417C14.0889 4.39055 14.1168 4.48487 14.1688 4.56726C15.03 5.91455 16.2226 7.03671 17.641 7.83452C19.0595 8.63233 20.6601 9.08122 22.3016 9.1415C22.4029 9.14422 22.5032 9.12022 22.5915 9.07208C22.6797 9.02394 22.7527 8.9535 22.8025 8.86835L25.0235 5.12465C25.2422 4.75444 24.9659 4.28856 24.5255 4.24557C23.1158 4.10331 21.7535 3.67425 20.529 2.98679C19.3043 2.29933 18.2453 1.36915 17.4219 0.257836C17.1628 -0.091576 16.6014 -0.0888028 16.3797 0.284181L14.163 4.01956ZM22.9708 18.8529C22.8695 18.8539 22.7699 18.8281 22.6827 18.7785C22.5954 18.7289 22.5239 18.6573 22.4757 18.5715C21.7027 17.1627 21.2985 15.5934 21.2985 14C21.2985 12.4065 21.7027 10.8372 22.4757 9.42851C22.5239 9.34265 22.5954 9.27109 22.6827 9.22149C22.7699 9.1719 22.8695 9.14616 22.9708 9.14705H27.4015C27.8448 9.14705 28.1254 9.61014 27.9441 9.99841C27.3584 11.257 27.0557 12.6207 27.0557 14C27.0557 15.3793 27.3584 16.743 27.9441 18.0016C28.1254 18.3898 27.8433 18.8529 27.4015 18.8529H22.9708ZM14.163 23.9804C14.1128 23.8971 14.0868 23.8022 14.0879 23.7058C14.0889 23.6094 14.1168 23.5151 14.1688 23.4327C15.03 22.0855 16.2226 20.9633 17.641 20.1655C19.0595 19.3677 20.6601 18.9188 22.3016 18.8585C22.4029 18.8558 22.5032 18.8798 22.5915 18.9279C22.6797 18.976 22.7527 19.0465 22.8025 19.1316L25.0235 22.8753C25.2422 23.2456 24.9659 23.7114 24.5255 23.7545C23.1158 23.8967 21.7535 24.3257 20.529 25.0132C19.3043 25.7007 18.2453 26.6308 17.4219 27.7421C17.1628 28.0916 16.6014 28.0888 16.3797 27.7158L14.163 23.9804ZM13.8377 23.9804C13.8878 23.8971 13.9138 23.8022 13.9129 23.7058C13.9118 23.6094 13.8839 23.5151 13.832 23.4327C12.9707 22.0855 11.7782 20.9633 10.3597 20.1655C8.94122 19.3677 7.34055 18.9188 5.69918 18.8585C5.59778 18.8558 5.49754 18.8798 5.40926 18.9279C5.32097 18.976 5.24802 19.0465 5.19826 19.1316L2.97722 22.8753C2.75844 23.2456 3.03481 23.7114 3.47526 23.7545C4.88494 23.8967 6.24717 24.3257 7.47178 25.0132C8.69639 25.7007 9.75548 26.6308 10.5789 27.7421C10.838 28.0916 11.3993 28.0888 11.6209 27.7158L13.8377 23.9804ZM5.02985 18.8529C5.13115 18.8539 5.23079 18.8281 5.31804 18.7785C5.40529 18.7289 5.47685 18.6573 5.52501 18.5715C6.29807 17.1627 6.70215 15.5934 6.70215 14C6.70215 12.4065 6.29807 10.8372 5.52501 9.42851C5.47685 9.34265 5.40529 9.27109 5.31804 9.22149C5.23079 9.1719 5.13115 9.14616 5.02985 9.14705H0.597852C0.155948 9.14705 -0.12474 9.61014 0.0551884 9.99841C0.640843 11.257 0.943603 12.6207 0.943603 14C0.943603 15.3793 0.640843 16.743 0.0551884 18.0016C-0.12474 18.3898 0.155948 18.8529 0.597852 18.8529H5.02985ZM13.8377 4.01956C13.8878 4.10294 13.9138 4.19779 13.9129 4.29417C13.9118 4.39055 13.8839 4.48487 13.832 4.56726C12.9707 5.91455 11.7782 7.03671 10.3597 7.83452C8.94122 8.63233 7.34055 9.08122 5.69918 9.1415C5.59778 9.14422 5.49754 9.12022 5.40926 9.07208C5.32097 9.02394 5.24802 8.9535 5.19826 8.86835L2.97722 5.12465C2.75844 4.75444 3.03481 4.28856 3.47526 4.24557C4.88494 4.10331 6.24717 3.67425 7.47178 2.98679C8.69639 2.29933 9.75548 1.36915 10.5789 0.257836C10.838 -0.091576 11.3993 -0.0888028 11.6209 0.284181L13.8377 4.01956Z" fill="white" fill-opacity="0.05" style="fill:white;fill-opacity:0.05;"/>
<path d="M5.69141 19.1084C7.29287 19.1674 8.85431 19.6059 10.2373 20.3838C11.6199 21.1615 12.7815 22.2543 13.6201 23.5654V23.5664C13.6338 23.5881 13.6443 23.611 13.6514 23.6348L13.6631 23.709C13.6635 23.7585 13.6495 23.8076 13.623 23.8516V23.8525L11.4062 27.5879C11.2858 27.7906 10.9439 27.8148 10.7793 27.5928H10.7783C9.9337 26.4531 8.84824 25.4992 7.59375 24.7949C6.49582 24.1787 5.29028 23.7655 4.03906 23.5742L3.5 23.5059L3.39844 23.4834C3.21174 23.4175 3.12323 23.2304 3.16211 23.0762L3.19238 23.0029L5.41309 19.2588L5.41406 19.2578C5.44042 19.2127 5.48014 19.1743 5.5293 19.1475L5.52832 19.1465C5.57727 19.1198 5.634 19.1071 5.69141 19.1084ZM22.3936 19.1172L22.4717 19.1475C22.5208 19.1743 22.5604 19.2126 22.5869 19.2578L22.5879 19.2588L24.8086 23.0029C24.9176 23.1882 24.7921 23.4774 24.501 23.5059H24.5C23.0566 23.6516 21.661 24.0906 20.4062 24.7949C19.1515 25.4994 18.0654 26.4528 17.2207 27.5928C17.0562 27.8147 16.7153 27.7906 16.5947 27.5879L14.3779 23.8525L14.377 23.8516L14.3477 23.7822C14.3411 23.7583 14.3377 23.7337 14.3379 23.709V23.708C14.3384 23.6591 14.3528 23.6108 14.3799 23.5674C15.2186 22.2554 16.3805 21.1618 17.7637 20.3838C19.1465 19.606 20.7073 19.1676 22.3086 19.1084C22.3374 19.1077 22.366 19.1106 22.3936 19.1172ZM22.9688 9.39746H27.4014C27.6253 9.39746 27.7809 9.60319 27.7451 9.80664L27.7178 9.89258C27.1168 11.184 26.8057 12.584 26.8057 14C26.8057 15.416 27.1168 16.816 27.7178 18.1074C27.8233 18.3335 27.6562 18.6025 27.4014 18.6025H22.9688C22.9114 18.6031 22.8551 18.589 22.8066 18.5615C22.7589 18.5343 22.7208 18.4956 22.6953 18.4512C21.9423 17.0789 21.5488 15.551 21.5488 14C21.5488 12.4489 21.9414 10.92 22.6943 9.54785C22.7198 9.50357 22.759 9.46554 22.8066 9.43848C22.855 9.41105 22.9112 9.39696 22.9688 9.39746ZM0.597656 9.39746H5.03223C5.08972 9.39699 5.14586 9.411 5.19434 9.43848C5.24281 9.46603 5.28122 9.50551 5.30664 9.55078C6.05898 10.9224 6.45215 12.4496 6.45215 14C6.45215 15.5503 6.05897 17.0775 5.30664 18.4492C5.28119 18.4944 5.24286 18.5339 5.19434 18.5615C5.14578 18.589 5.08964 18.6031 5.03223 18.6025H0.597656C0.344078 18.6024 0.17728 18.3347 0.282227 18.1074C0.883151 16.816 1.19336 15.416 1.19336 14C1.19336 12.7609 0.955329 11.5344 0.493164 10.3818L0.282227 9.89258C0.177289 9.66519 0.34412 9.3976 0.597656 9.39746ZM10.7793 0.40625C10.9439 0.184406 11.2859 0.209476 11.4062 0.412109L13.623 4.14746V4.14844C13.6495 4.19243 13.6635 4.24158 13.6631 4.29102C13.6625 4.34074 13.6476 4.39003 13.6201 4.43359C12.7815 5.74504 11.6201 6.83839 10.2373 7.61621C8.85431 8.39408 7.29285 8.83158 5.69141 8.89062C5.63411 8.89197 5.57814 8.87912 5.5293 8.85254C5.48014 8.82573 5.4404 8.78725 5.41406 8.74219L5.41309 8.74121L3.19238 4.99707C3.09689 4.835 3.18074 4.59346 3.39844 4.5166L3.5 4.49414C4.9434 4.34848 6.33901 3.90937 7.59375 3.20508C8.84862 2.50063 9.93456 1.54635 10.7793 0.40625ZM16.5947 0.412109C16.7152 0.2095 17.056 0.184827 17.2207 0.40625C18.0654 1.5463 19.1514 2.50063 20.4062 3.20508C21.661 3.90946 23.0566 4.34842 24.5 4.49414H24.501C24.7921 4.52256 24.9176 4.81184 24.8086 4.99707L22.5879 8.74121L22.5869 8.74219C22.5605 8.78739 22.5208 8.82576 22.4717 8.85254C22.4225 8.87932 22.3661 8.89211 22.3086 8.89062C20.7073 8.83147 19.1465 8.39396 17.7637 7.61621C16.4667 6.88669 15.3639 5.88008 14.54 4.67578L14.3799 4.43262C14.3528 4.38927 14.3384 4.34088 14.3379 4.29199V4.29102C14.3374 4.24169 14.3505 4.1924 14.377 4.14844L14.3779 4.14746L16.5947 0.412109Z" stroke="url(#paint0_linear_39_796)" stroke-opacity="0.05" style="" stroke-width="0.5"/>
<defs>
<linearGradient id="paint0_linear_39_796" x1="14" y1="0" x2="14" y2="28" gradientUnits="userSpaceOnUse">
<stop stop-color="white" style="stop-color:white;stop-opacity:1;"/>
<stop offset="1" stop-color="white" stop-opacity="0.6" style="stop-color:white;stop-opacity:0.6;"/>
</linearGradient>
</defs>
</svg>
